<svg width="80" height="64" viewBox="0 0 80 64" fill="none" xmlns="http://www.w3.org/2000/svg">
<path d="M40 29.5555C40 26.9555 38.44 24.6355 36.08 23.6355L13.76 14.1955C7.84 20.9155 4.48 28.9955 2.56 35.9955H33.56C37.12 35.9955 40 33.1155 40 29.5555Z" fill="white"/>
<path d="M79.84 28.8755C78.2 11.2355 61.6 -1.08447 43.92 0.0755295C33.88 0.715529 26.16 3.83553 20.2 8.23553L39.16 16.2755C44.48 18.5555 47.96 23.7555 47.96 29.5555C47.96 37.5155 41.48 43.9955 33.52 43.9955H0.84C1.78814e-07 49.2355 0 52.7955 0 52.7955V55.9955C0 60.3955 3.6 63.9955 8 63.9955H48C66.68 63.9955 81.64 47.9555 79.84 28.8755Z" fill="white"/>
</svg>
