<svg width="28" height="37" viewBox="0 0 28 37" fill="none" xmlns="http://www.w3.org/2000/svg">
<path d="M24.5 12.3333H22.75V8.80952C22.75 3.94667 18.83 0 14 0C9.17 0 5.25 3.94667 5.25 8.80952V12.3333H3.5C1.575 12.3333 0 13.919 0 15.8571V33.4762C0 35.4143 1.575 37 3.5 37H24.5C26.425 37 28 35.4143 28 33.4762V15.8571C28 13.919 26.425 12.3333 24.5 12.3333ZM14 28.1905C12.075 28.1905 10.5 26.6048 10.5 24.6667C10.5 22.7286 12.075 21.1429 14 21.1429C15.925 21.1429 17.5 22.7286 17.5 24.6667C17.5 26.6048 15.925 28.1905 14 28.1905ZM19.425 12.3333H8.575V8.80952C8.575 5.79667 11.0075 3.34762 14 3.34762C16.9925 3.34762 19.425 5.79667 19.425 8.80952V12.3333Z" fill="black" fill-opacity="0.37"/>
</svg>
